# xmcd CD database file
#
# Track frame offsets:
#	150
#	26920
#	45587
#	66422
#	89697
#	113497
#	134345
#	156302
#	177362
#	200184
#
# Disc length: 3093 seconds
#
# Revision: 0
# Processed by: cddbd v1.5.2PL0 Copyright (c) Steve Scherf et al.
# Submitted via: CDex 1.99.1
#
DISCID=940c130a
DTITLE=Benson, George (1943) - George Benson 1998 - Standing Together
DYEAR=1998
DGENRE=Jazz
TTITLE0=C - Smooth 
TTITLE1=Standing Together 
TTITLE2=All I Know
TTITLE3=Cruise Control
TTITLE4=Poquito Spanish, Poquito Funk
TTITLE5=Still Waters
TTITLE6=Fly By Night
TTITLE7=Back To Love
TTITLE8=Keep Rollin' 
TTITLE9=You Can Do It, Baby 
EXTD=YEAR: 1998
EXTT0=
EXTT1=
EXTT2=
EXTT3=
EXTT4=
EXTT5=
EXTT6=
EXTT7=
EXTT8=
EXTT9=
PLAYORDER=
